<svg width="83" height="83" viewBox="0 0 83 83" fill="none" xmlns="http://www.w3.org/2000/svg">
<g clip-path="url(#clip0_18_120)">
<path d="M39.2 40.1001C26.93 47.0801 18.18 59.5201 16.24 74.1201C23.19 79.4301 31.87 82.5901 41.29 82.5901C50.71 82.5901 58.64 79.6901 65.43 74.7901C63.52 59.1101 53.25 46.0101 39.2 40.1001Z" fill="#547792"/>
<path d="M41.3 0.290039C19.39 0.290039 1.47998 17.35 0.0999756 38.9C12.5 32.69 26.49 29.18 41.3 29.18C56.11 29.18 69.08 32.43 81.13 38.22C81.59 38.43 82.05 38.64 82.5 38.87C81.09 17.33 63.19 0.290039 41.3 0.290039Z" fill="#547792"/>
<path d="M81.13 38.2199C75.3 35.5599 68.83 34.0699 62.01 34.0699C53.71 34.0699 45.94 36.2699 39.21 40.0999C53.26 46.0099 63.53 59.1099 65.44 74.7899C75.79 67.3199 82.55 55.1699 82.59 41.4399C82.59 40.5899 82.55 39.7399 82.5 38.8999C82.04 38.6699 81.59 38.4399 81.13 38.2199Z" fill="#94A3B8"/>
<path d="M82.49 38.9C82.49 38.9 82.51 38.9 82.51 38.91C82.51 38.9 82.51 38.89 82.51 38.88C82.51 38.88 82.49 38.88 82.49 38.87C82.49 38.88 82.49 38.89 82.49 38.9Z" fill="white"/>
<path d="M41.3 29.1801C26.49 29.1801 12.5 32.6801 0.10001 38.9001C0.0500098 39.7401 0.0100098 40.5901 0.0100098 41.4401C0.0100098 41.9501 0.0300098 42.4501 0.0500098 42.9501C0.55001 55.6601 6.79001 66.8901 16.25 74.1201C18.19 59.5201 26.94 47.0901 39.21 40.1001C45.94 36.2701 53.72 34.0701 62.01 34.0701C68.83 34.0701 75.31 35.5601 81.13 38.2201C69.08 32.4301 55.57 29.1801 41.3 29.1801Z" fill="white"/>
</g>
<defs>
<clipPath id="clip0_18_120">
<rect width="82.59" height="82.88" fill="white"/>
</clipPath>
</defs>
</svg>
